<?xml version="1.0" encoding="UTF-8"?>
<svg version="1.1" xmlns="http://www.w3.org/2000/svg" width="2000" height="2000">
<path d="M0 0 C0.77244553 -0.00807175 1.54489105 -0.01614349 2.34074402 -0.02445984 C3.97543132 -0.03824283 5.6101467 -0.04899065 7.24487305 -0.05688477 C8.88233144 -0.06830403 10.51975567 -0.08859252 12.15698242 -0.1184082 C42.87204833 -0.67595782 72.07322659 11.22110841 94.3203125 32.43359375 C102.15367133 40.09183512 102.15367133 40.09183512 104.91796875 44.23828125 C107.62016524 44.55467457 110.09735806 44.6730087 112.80458069 44.66633606 C113.62890058 44.67595499 114.45322046 44.68557392 115.30251974 44.69548434 C118.08074681 44.72397174 120.858604 44.73076382 123.63696289 44.73754883 C125.62263913 44.75306484 127.60830646 44.76976037 129.59396362 44.78755188 C135.00128774 44.8312718 140.40851052 44.8546664 145.81597829 44.87177873 C149.1940753 44.88278302 152.57214352 44.89706787 155.95022392 44.9122982 C166.51842306 44.95872419 177.08655392 44.9922753 187.65484339 45.00831395 C199.85566272 45.02703695 212.05528048 45.08839761 224.25571162 45.18681604 C233.68343487 45.2602391 243.11081784 45.2951933 252.53882307 45.3011772 C258.17063099 45.30562303 263.80125193 45.32637497 269.43275642 45.3872776 C274.73481083 45.44357618 280.03483372 45.4520442 285.33709335 45.4242382 C287.27973205 45.42220389 289.22247693 45.43718301 291.16482735 45.47071075 C301.65710955 45.91947676 301.65710955 45.91947676 311.02692986 42.02519798 C313.28084931 39.53738878 315.10075231 37.052289 316.91796875 34.23828125 C331.41497929 20.59284336 349.7876722 10.57696866 368.91796875 5.23828125 C369.91570312 4.93921875 370.9134375 4.64015625 371.94140625 4.33203125 C390.04738996 -0.22611849 411.93302279 0.17554958 429.91796875 5.23828125 C431.76068359 5.74875 431.76068359 5.74875 433.640625 6.26953125 C464.63927527 15.75825977 489.70591097 36.67109496 504.8828125 65.203125 C519.72494328 94.11861545 522.13896308 127.32967228 512.29296875 158.23828125 C507.33409881 172.80948766 499.83037702 185.52361693 489.91796875 197.23828125 C489.09167969 198.21667969 488.26539063 199.19507813 487.4140625 200.203125 C471.3122911 218.57275153 449.51892374 230.57745459 425.91796875 236.23828125 C425.19859131 236.42447021 424.47921387 236.61065918 423.73803711 236.80249023 C416.63908104 238.46297408 409.57253528 238.57694408 402.31567383 238.55395508 C400.250918 238.55081238 398.18762499 238.5742726 396.12304688 238.59960938 C383.20902225 238.66282804 371.04512906 236.43225378 358.85546875 232.05078125 C358.01040771 231.74889893 357.16534668 231.4470166 356.29467773 231.13598633 C343.34724414 226.34168747 332.54321046 218.93814359 321.91796875 210.23828125 C321.13292969 209.59632813 320.34789062 208.954375 319.5390625 208.29296875 C314.2113382 203.78411669 314.2113382 203.78411669 313.01392174 201.55623531 C311.53048504 199.15548475 310.27307802 197.82661107 307.91796875 196.23828125 C302.32319093 195.14796482 296.7624789 195.29431098 291.08056641 195.35180664 C289.3456971 195.34391524 287.61083945 195.33295248 285.87600708 195.31915283 C281.17370098 195.29043801 276.47239082 195.30465442 271.77008486 195.32659459 C266.85326797 195.3422299 261.9366465 195.31836278 257.01986694 195.2986908 C247.71263535 195.2674522 238.40577253 195.27172565 229.09851778 195.28876537 C216.5193162 195.30974229 203.94027016 195.27584731 191.36110878 195.2450285 C171.54655631 195.19792943 151.73279131 195.22413069 131.91796875 195.23828125 C131.91796875 245.39828125 131.91796875 295.55828125 131.91796875 347.23828125 C142.80796875 347.23828125 153.69796875 347.23828125 164.91796875 347.23828125 C174.60633274 350.87141775 180.17460433 353.8009001 185.0078125 362.9921875 C186.87501307 367.6000859 187.02786521 371.93654167 186.96179199 376.87098694 C186.95120703 377.85087284 186.95120703 377.85087284 186.94040823 378.85055441 C186.92446428 380.27714712 186.90615211 381.70371488 186.88575935 383.13025093 C186.84109433 386.26714107 186.80819223 389.40412588 186.77457619 392.54115093 C186.75642705 394.23005043 186.73770517 395.91894386 186.71845055 397.60783112 C186.59717844 408.45573627 186.56046943 419.3040915 186.52093601 430.15255177 C186.48207351 440.70969508 186.41622211 451.26487949 186.26318359 461.82104492 C186.14166184 470.21381926 186.08062912 478.60458137 186.09010172 486.99826521 C186.09291835 491.43605966 186.06603807 495.86903863 185.96592712 500.3058033 C184.81047529 517.70976335 184.81047529 517.70976335 189.55541992 533.83503342 C193.39585534 537.8240755 197.68310056 540.10321317 202.75238037 542.19689751 C206.45297493 543.9764319 209.33970708 546.68063478 212.35546875 549.42578125 C213.39516145 550.33670493 214.4354248 551.24697823 215.4765625 552.15625 C216.62431525 553.18290401 217.77138056 554.2103268 218.91796875 555.23828125 C219.66876709 555.9029541 220.41956543 556.56762695 221.19311523 557.25244141 C227.35083525 562.73439483 233.27415576 568.41145044 239.10546875 574.23828125 C239.95560547 575.07617188 240.80574219 575.9140625 241.68164062 576.77734375 C242.93364258 578.02644531 242.93364258 578.02644531 244.2109375 579.30078125 C244.94852295 580.03425781 245.6861084 580.76773438 246.44604492 581.5234375 C248.91796875 584.23828125 248.91796875 584.23828125 250.06309277 586.43276876 C251.75197536 589.347204 253.24131665 591.16746564 255.91796875 593.23828125 C261.8461841 594.62255203 267.70753911 594.43976204 273.76756287 594.35853577 C275.62153545 594.36659268 277.47549438 594.37859886 279.32941872 594.39421266 C284.42205585 594.42567444 289.51312121 594.40109455 294.6056875 594.36741483 C300.09784854 594.34089138 305.58979731 594.36626259 311.08195496 594.38534546 C320.59675275 594.4112959 330.11107068 594.40433446 339.62585258 594.37504768 C353.38254733 594.3327517 367.1388637 594.34004678 380.89559341 594.35946303 C403.21455818 594.38961648 425.53335397 594.37971599 447.85229492 594.34448242 C469.53364157 594.3103508 491.21486717 594.29511014 512.89624023 594.30541992 C513.5646566 594.30573024 514.23307297 594.30604056 514.92174437 594.30636029 C522.30037934 594.30980882 529.67901396 594.31377419 537.05764854 594.31795132 C592.67783049 594.34895812 648.29783809 594.31486077 703.91796875 594.23828125 C703.98172699 593.20867279 704.04548523 592.17906433 704.11117554 591.11825562 C704.19819063 589.75379734 704.28532459 588.38934664 704.37255859 587.02490234 C704.41416611 586.3478978 704.45577362 585.67089325 704.49864197 584.97337341 C706.06697133 560.70257645 717.11227258 538.51406682 733.91796875 521.23828125 C734.96210938 520.10132813 734.96210938 520.10132813 736.02734375 518.94140625 C749.95322356 504.20233638 768.51956099 495.29250775 787.91796875 490.23828125 C788.85125 489.99207031 789.78453125 489.74585938 790.74609375 489.4921875 C818.2579891 483.65998746 847.62767319 490.29684749 871.15332031 505.078125 C875.7494989 508.09985171 879.87002954 511.52517896 883.91796875 515.23828125 C884.6442749 515.89304443 884.6442749 515.89304443 885.38525391 516.56103516 C906.43259268 535.71647831 917.97768368 561.97003732 919.91796875 590.23828125 C920.06510912 595.79758526 920.06182933 601.35537753 920.05841064 606.91612244 C920.06099788 608.60650546 920.06401204 610.29688788 920.06741405 611.98726946 C920.07544523 616.61404422 920.07727144 621.24080344 920.07801151 625.86758435 C920.07986887 630.86509623 920.08741962 635.86260017 920.09414673 640.86010742 C920.10770311 651.77986312 920.11375061 662.69961514 920.11815739 673.61937785 C920.12092446 680.44426154 920.12516266 687.26914383 920.12966156 694.09402657 C920.14185087 713.00881708 920.15215074 731.92360648 920.15553665 750.83840084 C920.15575622 752.04795818 920.15597578 753.25751551 920.156202 754.5037261 C920.15642028 755.71609499 920.15663856 756.92846389 920.15686345 758.17757124 C920.15730691 760.63408721 920.15775347 763.09060317 920.15820312 765.54711914 C920.15842455 766.7656229 920.15864598 767.98412666 920.15887412 769.23955477 C920.16281986 788.9716389 920.18026858 808.70368605 920.20356265 828.4357559 C920.22731283 848.71875828 920.23974018 869.00174213 920.24090457 889.28475863 C920.24181929 900.66303909 920.24752021 912.04127136 920.26572418 923.4195385 C920.28117474 933.11060045 920.28621652 942.80159931 920.27798608 952.49267124 C920.27409703 957.43071687 920.27492319 962.36863565 920.28904343 967.30666542 C920.30188777 971.84025357 920.30049373 976.37362092 920.28845271 980.90720922 C920.28651377 982.53442682 920.28948909 984.16166064 920.29829708 985.78885555 C920.44284484 1014.33400183 913.39720518 1040.96761528 894.91796875 1063.23828125 C894.2321875 1064.08777344 893.54640625 1064.93726563 892.83984375 1065.8125 C876.1052803 1085.55308688 851.43029169 1097.89306998 825.91796875 1101.23828125 C794.85043445 1103.32076472 766.24589306 1097.34991489 741.96875 1077.01171875 C719.54679437 1057.3570031 706.71893623 1030.86644779 703.91796875 1001.23828125 C703.91020291 999.57163268 703.90935369 997.90492565 703.91796875 996.23828125 C647.06672752 996.04535757 590.2157403 995.92609926 533.36416094 995.90554891 C526.6513837 995.9031068 519.93860685 995.89997647 513.22583008 995.89648438 C512.55784042 995.89614859 511.88985076 995.89581281 511.20161899 995.89546685 C489.56348729 995.88426742 467.92576508 995.82765377 446.28778853 995.74740151 C423.41442827 995.66281471 400.54140801 995.63016143 377.6678831 995.65200937 C363.96942531 995.66342193 350.27234211 995.63348513 336.57412531 995.55054615 C327.17895401 995.49762988 317.78465549 995.49632362 308.38942019 995.53543176 C302.96929491 995.55647433 297.55168076 995.55492584 292.13182449 995.49202919 C287.16373472 995.43487877 282.20006099 995.44291681 277.2320288 995.50162892 C275.44039121 995.51150844 273.64842966 995.49797504 271.85721169 995.45796187 C261.14098851 995.21537542 261.14098851 995.21537542 252.05984628 1000.29416537 C249.2037433 1003.19477558 246.68712454 1006.29923697 244.24191221 1009.54927151 C242.33227253 1011.98547828 240.14936558 1014.09907854 237.91796875 1016.23828125 C236.53204254 1017.65578307 235.1479069 1019.07503794 233.765625 1020.49609375 C225.1993534 1029.23918383 216.69095533 1037.62894398 206.79785156 1044.85449219 C204.68939596 1046.40653457 202.61281091 1047.9968256 200.53515625 1049.58984375 C189.47057768 1058.00197067 178.01449171 1065.40068099 165.91796875 1072.23828125 C165.20463379 1072.64385254 164.49129883 1073.04942383 163.75634766 1073.46728516 C117.22080177 1099.68403003 63.67277426 1112.4416587 10.41796875 1112.48828125 C9.35798172 1112.48929337 9.35798172 1112.48929337 8.27658081 1112.49032593 C-63.67701358 1112.38289204 -133.10401857 1087.25313805 -189.08203125 1042.23828125 C-190.09652344 1041.43003906 -191.11101563 1040.62179687 -192.15625 1039.7890625 C-200.42527121 1033.02879275 -207.97266647 1025.53129245 -215.51953125 1017.98828125 C-216.04004059 1017.46876892 -216.56054993 1016.94925659 -217.09683228 1016.41400146 C-234.08203125 999.42511668 -234.08203125 999.42511668 -234.08203125 996.23828125 C-246.77513597 996.29990083 -259.46804198 996.37729406 -272.16093063 996.47399616 C-278.05681705 996.51843668 -283.95263853 996.55774839 -289.84863281 996.5847168 C-295.55465466 996.61101536 -301.26042294 996.65159826 -306.96628571 996.70146751 C-309.12677062 996.71795888 -311.2872992 996.72958207 -313.44783783 996.73589516 C-330.71126009 996.79136687 -347.57826874 998.14483792 -364.33203125 1002.55078125 C-365.15517822 1002.76387939 -365.9783252 1002.97697754 -366.82641602 1003.1965332 C-388.00359231 1008.85374466 -408.40837286 1018.26403591 -426.08203125 1031.23828125 C-426.64325684 1031.64546387 -427.20448242 1032.05264648 -427.78271484 1032.47216797 C-468.7290477 1062.36666699 -495.01871291 1106.16169668 -503.35546875 1156.125 C-505.00490694 1167.30774412 -505.28002965 1178.43692561 -505.3984375 1189.71875 C-505.41905328 1191.3845516 -505.4400508 1193.05034852 -505.46141052 1194.71614075 C-505.51615443 1199.06430221 -505.56577044 1203.41250706 -505.61425781 1207.76074219 C-505.66482491 1212.21227807 -505.72032568 1216.66375226 -505.77539062 1221.11523438 C-505.8823874 1229.82286425 -505.9839579 1238.53054631 -506.08203125 1247.23828125 C-505.05922058 1247.30031738 -504.03640991 1247.36235352 -502.98260498 1247.42626953 C-501.62348548 1247.51190183 -500.26437546 1247.59768453 -498.90527344 1247.68359375 C-497.89713089 1247.7441394 -497.89713089 1247.7441394 -496.86862183 1247.8059082 C-491.5343227 1248.14772003 -486.49856423 1248.89780821 -481.33203125 1250.23828125 C-480.49913574 1250.45266846 -479.66624023 1250.66705566 -478.80810547 1250.88793945 C-453.76881831 1257.77834017 -430.72360389 1273.9511405 -417.08203125 1296.23828125 C-416.51355469 1297.10066406 -415.94507813 1297.96304687 -415.359375 1298.8515625 C-400.71534147 1322.12109271 -396.13794899 1351.46943343 -401.70703125 1378.30078125 C-407.72201398 1404.4038968 -423.54145611 1429.68852888 -446.2109375 1444.5234375 C-469.95115679 1458.70296984 -492.35582445 1463.39567743 -519.88012695 1463.37872314 C-521.57137303 1463.38131104 -523.2626185 1463.38432537 -524.95386314 1463.38772655 C-529.57837856 1463.39574994 -534.20287842 1463.3975835 -538.82739997 1463.39832401 C-543.8242126 1463.40018272 -548.82101731 1463.40773408 -553.81782532 1463.41445923 C-564.7333897 1463.42800959 -575.6489504 1463.43406203 -586.56452179 1463.43846989 C-593.38723325 1463.44123772 -600.2099433 1463.44547603 -607.03265381 1463.44997406 C-625.94319571 1463.46216209 -644.85373649 1463.47246254 -663.76428223 1463.47584915 C-664.97330444 1463.47606872 -666.18232666 1463.47628828 -667.42798591 1463.4765145 C-668.6398067 1463.47673278 -669.8516275 1463.47695106 -671.10017014 1463.47717595 C-673.55554962 1463.47761941 -676.01092911 1463.47806597 -678.46630859 1463.47851562 C-679.68424685 1463.47873705 -680.90218511 1463.47895848 -682.15703058 1463.47918662 C-701.88258461 1463.48313288 -721.60810166 1463.50058375 -741.33364141 1463.52387515 C-761.6121554 1463.54762516 -781.89065085 1463.56005265 -802.16917896 1463.56121707 C-813.54409107 1463.56213174 -824.91895498 1463.56783165 -836.29385376 1463.58603668 C-845.98123169 1463.60148695 -855.66854652 1463.60652915 -865.35593444 1463.59829858 C-870.29196178 1463.59440957 -875.22786221 1463.59523556 -880.16387367 1463.60935593 C-884.69557153 1463.62220031 -889.22704849 1463.6208062 -893.7587465 1463.60876521 C-895.38526127 1463.60682629 -897.01179226 1463.60980149 -898.63828433 1463.61860958 C-931.69920203 1463.78609892 -959.92025698 1453.70857748 -983.95703125 1430.73828125 C-1003.96484756 1409.84287235 -1013.78581045 1382.96603702 -1013.51953125 1354.30078125 C-1013.51648987 1353.60139435 -1013.51344849 1352.90200745 -1013.51031494 1352.181427 C-1013.44293596 1341.69052008 -1012.77635054 1332.15461199 -1009.08203125 1322.23828125 C-1008.86240723 1321.61260254 -1008.6427832 1320.98692383 -1008.41650391 1320.34228516 C-1003.98105354 1307.74535499 -997.7111633 1296.45604012 -989.08203125 1286.23828125 C-988.40398438 1285.42617187 -987.7259375 1284.6140625 -987.02734375 1283.77734375 C-968.47400619 1262.31885724 -942.49718024 1249.81461534 -914.3371582 1247.70654297 C-913.16594925 1247.61831268 -911.9947403 1247.5300824 -910.78804016 1247.43917847 C-909.89505722 1247.37288239 -909.00207428 1247.3065863 -908.08203125 1247.23828125 C-908.08317041 1246.3467509 -908.08430957 1245.45522056 -908.08548325 1244.53667414 C-908.15272617 1191.60990354 -908.20414573 1138.6831375 -908.23522724 1085.75633267 C-908.23897902 1079.3907777 -908.24286202 1073.02522281 -908.24682617 1066.65966797 C-908.2476131 1065.39248615 -908.24840003 1064.12530433 -908.24921081 1062.81972305 C-908.26223826 1042.34485191 -908.28587733 1021.87000622 -908.31348964 1001.39515014 C-908.34161809 980.36097535 -908.35822319 959.32681384 -908.36429673 938.29262102 C-908.36839779 925.33019982 -908.38131543 912.3678506 -908.40578065 899.40545158 C-908.42172984 890.49728852 -908.426411 881.58916228 -908.42253538 872.680986 C-908.42062802 867.5537911 -908.42339608 862.42672133 -908.43964767 857.2995491 C-908.6698007 780.8001418 -887.81129019 715.93878504 -833.58203125 660.55078125 C-828.35887926 655.40109131 -822.91625527 650.67974236 -817.08203125 646.23828125 C-816.13312012 645.51535889 -816.13312012 645.51535889 -815.16503906 644.77783203 C-787.12088645 623.60284716 -756.38579761 608.02313062 -722.08203125 599.86328125 C-720.68198853 599.523573 -720.68198853 599.523573 -719.25366211 599.17700195 C-715.87883837 598.4265711 -712.48933063 597.81791841 -709.08203125 597.23828125 C-707.9812488 597.04934073 -707.9812488 597.04934073 -706.85822833 596.85658324 C-685.78647818 593.42119322 -664.67296314 593.8809914 -643.39649689 594.01076806 C-637.92906869 594.04053586 -632.46159887 594.05204283 -626.99411011 594.06533813 C-617.54689619 594.0901428 -608.09975712 594.12442179 -598.65259361 594.16380882 C-583.714121 594.22472905 -568.77569092 594.24819245 -553.83711243 594.26496887 C-551.2854694 594.26802449 -548.73382641 594.27110455 -546.18218344 594.27420872 C-542.31732123 594.27889368 -538.452459 594.28356729 -534.58759668 594.28816306 C-520.06563319 594.30562413 -505.54367874 594.32751974 -491.02172852 594.35375977 C-490.35918541 594.35494421 -489.69664231 594.35612865 -489.01402214 594.35734899 C-467.48750415 594.39611195 -445.96129122 594.47275278 -424.43494555 594.56556176 C-401.61997425 594.66365459 -378.80532254 594.70918096 -355.99013168 594.70254213 C-342.35058668 594.70045609 -328.71254824 594.74140386 -315.07333861 594.83795587 C-305.73733385 594.90026885 -296.4021462 594.91150538 -287.06598159 594.88259115 C-281.68221149 594.86749418 -276.30100498 594.87513856 -270.91760063 594.94415855 C-265.98515916 595.00692755 -261.05709396 595.00465083 -256.12457822 594.95157174 C-254.34511671 594.94375897 -252.56535643 594.95944461 -250.78637632 595.00156429 C-240.26720353 595.30764453 -240.26720353 595.30764453 -231.47586596 590.20628989 C-228.83293828 587.30754263 -226.56066397 584.21107102 -224.34552107 580.97895066 C-222.37047278 578.25798997 -220.07717261 575.97234728 -217.703125 573.59375 C-216.84396484 572.73201172 -215.98480469 571.87027344 -215.09960938 570.98242188 C-214.24818359 570.13873047 -213.39675781 569.29503906 -212.51953125 568.42578125 C-211.66423828 567.56275391 -210.80894531 566.69972656 -209.92773438 565.81054688 C-203.95946259 559.86021129 -197.6871657 554.4673194 -191.08203125 549.23828125 C-190.41598877 548.70323975 -189.74994629 548.16819824 -189.0637207 547.61694336 C-187.38925463 546.27334456 -185.70630143 544.94138219 -184.01953125 543.61328125 C-183.21805664 542.97519531 -183.21805664 542.97519531 -182.40039062 542.32421875 C-181.85060547 541.89109375 -181.30082031 541.45796875 -180.734375 541.01171875 C-180.20370989 540.58294308 -179.67304478 540.1541674 -179.1262989 539.71239853 C-177.08203125 538.23828125 -177.08203125 538.23828125 -174.57876396 536.97757339 C-171.55524865 535.32442755 -169.40074927 533.80132796 -167.08203125 531.23828125 C-165.6121313 526.1240328 -165.79702 521.10405176 -165.91845703 515.83886719 C-165.91796324 514.26948827 -165.91300848 512.70010539 -165.90394592 511.13075256 C-165.89403514 507.75894657 -165.91556407 504.38934477 -165.96179581 501.01784515 C-166.03484924 495.67917184 -166.03778948 490.34183188 -166.03170776 485.00274658 C-166.03042356 476.5512326 -166.07653698 468.10074147 -166.14262569 459.64951062 C-166.25976878 444.53417759 -166.30606517 429.41862358 -166.32071483 414.30286813 C-166.32784365 409.00433029 -166.35862874 403.70661995 -166.40933537 398.40832567 C-166.43760474 395.10057682 -166.44960261 391.79289754 -166.45792961 388.48504448 C-166.46532777 386.96090296 -166.47962175 385.43677538 -166.50164604 383.91277504 C-166.64302879 373.85187003 -166.04187655 364.27666624 -159.89453125 355.86328125 C-145.60721934 342.5284568 -130.4470427 347.23828125 -110.08203125 347.23828125 C-110.08203125 297.07828125 -110.08203125 246.91828125 -110.08203125 195.23828125 C-141.32142962 195.12488906 -141.32142962 195.12488906 -172.56054688 195.10546875 C-185.30077747 195.1184216 -198.04041169 195.12102532 -210.78051758 195.05664062 C-220.05936208 195.00979558 -229.33747656 194.99810556 -238.61640173 195.02836335 C-243.52838635 195.04316023 -248.43894936 195.04053459 -253.35078239 194.99578476 C-257.97833185 194.954181 -262.60347536 194.95973735 -267.23100662 195.00080299 C-268.92526875 195.00764731 -270.6197012 194.99755094 -272.31373405 194.96885109 C-281.7148543 194.66235598 -281.7148543 194.66235598 -290.04734993 198.45402908 C-292.29985626 200.94398014 -294.19563549 203.46691735 -296.08203125 206.23828125 C-318.50745273 227.34640524 -347.91223855 238.89013996 -378.58203125 238.61328125 C-379.86722656 238.62488281 -381.15242187 238.63648438 -382.4765625 238.6484375 C-395.16710465 238.61017456 -407.21093389 236.34021407 -419.14453125 232.05078125 C-419.98959229 231.74889893 -420.83465332 231.4470166 -421.70532227 231.13598633 C-434.65911946 226.3393311 -445.44271013 218.92753812 -456.08203125 210.23828125 C-457.20738281 209.34496094 -457.20738281 209.34496094 -458.35546875 208.43359375 C-480.97359328 189.7490561 -493.8069584 160.38503293 -496.87109375 131.71679688 C-499.66173431 98.92677032 -490.16800327 68.49199984 -469.08203125 43.23828125 C-468.19064453 42.11873047 -468.19064453 42.11873047 -467.28125 40.9765625 C-462.56300874 35.24485653 -456.92812672 30.77459577 -451.08203125 26.23828125 C-449.85226562 25.2328125 -449.85226562 25.2328125 -448.59765625 24.20703125 C-428.96265203 8.84050621 -403.47878485 1.60502413 -378.83203125 1.80078125 C-377.82571655 1.80534332 -377.82571655 1.80534332 -376.79907227 1.80999756 C-344.26628091 2.02699857 -315.12684334 15.37350676 -292.08203125 38.23828125 C-291.385467 39.25252324 -290.68890276 40.26676523 -289.97123051 41.31174183 C-287.66679121 44.0710973 -287.12938581 44.22850502 -283.32998562 45.01288128 C-281.83881723 45.05482776 -280.34650744 45.06402829 -278.85484314 45.04728699 C-278.03007668 45.06158589 -277.20531021 45.0758848 -276.35555083 45.090617 C-273.59323373 45.1309238 -270.83265374 45.12836866 -268.07006836 45.12573242 C-266.08880147 45.1453245 -264.10755748 45.16736307 -262.12634277 45.19166565 C-256.74368128 45.24897137 -251.36157182 45.26712297 -245.9786346 45.27475524 C-242.61301535 45.28124298 -239.2475376 45.29602376 -235.88195992 45.3137455 C-224.13224246 45.37526541 -212.38293058 45.40463227 -200.63305664 45.4050293 C-189.69477901 45.4062607 -178.75851695 45.47826888 -167.82078928 45.58340853 C-158.42091698 45.67055302 -149.02170495 45.70731015 -139.62143141 45.70545369 C-134.01110203 45.70522756 -128.40265736 45.72518181 -122.79273796 45.79616356 C-117.50980749 45.86131265 -112.23045383 45.86345158 -106.94734955 45.81844139 C-105.01564106 45.81246772 -103.08371218 45.82842848 -101.15241432 45.86870193 C-89.95192841 46.28566237 -89.95192841 46.28566237 -80.31860542 41.35840797 C-77.22898871 38.22421291 -74.68265584 34.78117411 -72.08203125 31.23828125 C-64.02767858 23.29576619 -54.06187396 17.41048284 -44.08203125 12.23828125 C-43.0353125 11.69429687 -41.98859375 11.1503125 -40.91015625 10.58984375 C-28.14396317 4.33377401 -14.26238153 0.14531113 0 0 Z M-42.39453125 76.88671875 C-44.92919788 80.00704698 -47.35942734 83.15156005 -49.5859375 86.5 C-53.68043038 92.53575109 -58.18450141 95.01915207 -65.22452068 96.77160549 C-68.83979792 97.36203629 -72.39613067 97.39167415 -76.04829407 97.39649963 C-76.84477535 97.40143761 -77.64125663 97.40637559 -78.46187371 97.4114632 C-81.12733107 97.42680571 -83.79276439 97.43519002 -86.45825195 97.44360352 C-88.37029735 97.45318459 -90.28234064 97.46319481 -92.19438171 97.47360229 C-97.38398928 97.50063254 -102.57360591 97.52165231 -107.76324487 97.54160428 C-113.18716602 97.56347541 -118.61105926 97.59085859 -124.03495789 97.61766052 C-134.30540661 97.66757215 -144.57587085 97.71251667 -154.8463499 97.75568289 C-166.5391276 97.80506832 -178.23187729 97.85998162 -189.9246279 97.91536248 C-213.97706954 98.02915904 -238.02953806 98.13600317 -262.08203125 98.23828125 C-262.01138458 99.03918182 -261.94073792 99.8400824 -261.86795044 100.66525269 C-261.73052933 102.25963669 -261.73052933 102.25963669 -261.59033203 103.88623047 C-261.49906036 104.93463104 -261.4077887 105.98303162 -261.31375122 107.0632019 C-260.96565334 111.8329177 -260.93657387 116.58307397 -260.95703125 121.36328125 C-260.95316406 122.27464844 -260.94929687 123.18601562 -260.9453125 124.125 C-260.95167695 128.59920937 -261.13522497 132.97116292 -261.59011841 137.42355347 C-261.68176332 138.32492979 -261.77340824 139.22630611 -261.86783028 140.15499687 C-261.9385166 140.84248072 -262.00920292 141.52996456 -262.08203125 142.23828125 C-260.59612205 142.24186378 -260.59612205 142.24186378 -259.08019447 142.24551868 C-234.9589852 142.30435449 -210.83787548 142.38026261 -186.71677589 142.47399616 C-175.05191578 142.51893146 -163.38708605 142.55835141 -151.72216797 142.5847168 C-141.55315757 142.60771516 -131.38424349 142.64113386 -121.2153095 142.68698281 C-115.83263882 142.71089011 -110.45006338 142.72963527 -105.06734085 142.73589516 C-99.9964453 142.74195722 -94.92579335 142.76199781 -89.8549881 142.79255676 C-87.9983146 142.80131898 -86.14160925 142.80506335 -84.28491592 142.80328941 C-61.40495748 142.78833713 -61.40495748 142.78833713 -52.84765625 149.40625 C-50.01300879 152.34751031 -47.87380257 155.76527048 -45.61987305 159.15454102 C-36.55080361 172.61866482 -23.67767626 181.73138527 -8.08203125 186.23828125 C-6.23738281 186.77195313 -6.23738281 186.77195313 -4.35546875 187.31640625 C12.732117 191.48352316 30.48403553 187.26169126 45.6953125 179.21875 C56.42916936 172.62230706 66.17649657 161.88674299 72.91796875 151.23828125 C72.91796875 150.57828125 72.91796875 149.91828125 72.91796875 149.23828125 C81.06666024 145.00096168 87.73848527 143.09214683 96.88423157 143.08006287 C97.68071285 143.07512489 98.47719413 143.07018691 99.29781121 143.0650993 C101.96326857 143.04975679 104.62870189 143.04137248 107.29418945 143.03295898 C109.20623485 143.02337791 111.11827814 143.01336769 113.03031921 143.00296021 C118.21992678 142.97592996 123.40954341 142.95491019 128.59918237 142.93495822 C134.02310352 142.91308709 139.44699676 142.88570391 144.87089539 142.85890198 C155.14134411 142.80899035 165.41180835 142.76404583 175.6822874 142.72087961 C187.3750651 142.67149418 199.06781479 142.61658088 210.7605654 142.56120002 C234.81300704 142.44740346 258.86547556 142.34055933 282.91796875 142.23828125 C282.81199875 140.92654182 282.81199875 140.92654182 282.70388794 139.58830261 C282.61227386 138.43147476 282.52065979 137.27464691 282.42626953 136.08276367 C282.33499786 134.94014572 282.2437262 133.79752777 282.14968872 132.62028503 C281.82801912 127.92544665 281.77150594 123.2547139 281.79296875 118.55078125 C281.78910156 117.69162109 281.78523438 116.83246094 281.78125 115.94726562 C281.78777604 111.61070974 281.98576032 107.37527141 282.42605591 103.05973816 C282.51770082 102.15739032 282.60934574 101.25504248 282.70376778 100.32535076 C282.80979726 99.29225135 282.80979726 99.29225135 282.91796875 98.23828125 C281.92736261 98.2358929 280.93675648 98.23350454 279.91613197 98.23104382 C255.7949227 98.17220801 231.67381298 98.09629989 207.55271339 98.00256634 C195.88785328 97.95763104 184.22302355 97.91821109 172.55810547 97.8918457 C162.38909507 97.86884734 152.22018099 97.83542864 142.051247 97.78957969 C136.66857632 97.76567239 131.28600088 97.74692723 125.90327835 97.74066734 C120.8323828 97.73460528 115.76173085 97.71456469 110.6909256 97.68400574 C108.8342521 97.67524352 106.97754675 97.67149915 105.12085342 97.67327309 C83.49691202 97.68740455 83.49691202 97.68740455 76.78884315 92.63450146 C75.03990052 91.03891563 75.03990052 91.03891563 72.91796875 91.23828125 C72.66660156 90.68914062 72.41523437 90.14 72.15625 89.57421875 C69.61930279 84.7884319 66.15280366 80.56827554 62.91796875 76.23828125 C62.17546875 75.20703125 61.43296875 74.17578125 60.66796875 73.11328125 C48.07746394 59.95048077 31.41417555 52.41659115 13.30102539 51.83569336 C-9.13520242 51.55169048 -27.66283788 60.01494831 -42.39453125 76.88671875 Z M-430.33203125 78.92578125 C-441.61606569 93.89392549 -445.84927617 110.72506428 -444.08203125 129.23828125 C-441.42229171 147.08752861 -431.96592619 162.74743112 -417.70703125 173.67578125 C-402.48994388 183.90684425 -385.402914 188.51302686 -367.171875 185.6171875 C-349.61851857 182.04411568 -334.80292342 172.67868355 -324.14453125 158.23828125 C-320.84478561 153.15619125 -318.2735572 147.88166126 -316.08203125 142.23828125 C-315.76105469 141.44550781 -315.44007813 140.65273437 -315.109375 139.8359375 C-309.80473413 124.21808786 -312.26049386 105.6663228 -319.26953125 91.11328125 C-327.68619261 74.64979851 -341.50225811 62.56441279 -359.11328125 56.84765625 C-385.5956667 49.14059894 -412.54470499 58.1852157 -430.33203125 78.92578125 Z M347.66796875 78.92578125 C336.38393431 93.89392549 332.15072383 110.72506428 333.91796875 129.23828125 C336.64079501 147.51089727 346.36928305 162.90332083 360.84375 174.16796875 C375.70014778 184.17291261 393.02900735 188.44441997 410.828125 185.6171875 C428.38148143 182.04411568 443.19707658 172.67868355 453.85546875 158.23828125 C464.17127502 142.32533436 466.8157907 125.38666184 464.484375 106.77734375 C461.0319874 90.7805664 451.06624511 75.86746011 437.91796875 66.23828125 C407.94471364 47.11982647 371.15659414 51.53732684 347.66796875 78.92578125 Z M-58.08203125 220.23828125 C-58.08203125 262.14828125 -58.08203125 304.05828125 -58.08203125 347.23828125 C-12.87203125 347.23828125 32.33796875 347.23828125 78.91796875 347.23828125 C78.91796875 305.32828125 78.91796875 263.41828125 78.91796875 220.23828125 C75.01733349 221.79853535 72.1016494 223.29266002 68.60546875 225.48828125 C42.09662309 241.13926024 9.14825315 243.88912719 -20.41503906 236.66845703 C-32.18591902 233.48378288 -42.69940264 228.14454192 -53.28295898 222.17456055 C-55.22888022 221.10186264 -55.22888022 221.10186264 -58.08203125 220.23828125 Z M-113.08203125 400.23828125 C-113.25251207 449.52716391 -113.25251207 449.52716391 -113.37988281 498.81616211 C-113.42529297 508.36047363 -113.42529297 508.36047363 -113.45159912 512.83204651 C-113.46856823 515.9475335 -113.47446444 519.06282785 -113.47357178 522.17835999 C-113.47279781 526.15937032 -113.49118622 530.13987005 -113.5231204 534.12074769 C-113.53160308 535.57738467 -113.53350151 537.03407943 -113.5278554 538.49073017 C-113.49286946 548.83033024 -114.51856688 557.6096146 -122.08203125 565.23828125 C-124.743615 567.23595931 -127.52319398 569.01840965 -130.33203125 570.80078125 C-154.61612533 586.62327881 -177.25641703 605.23080243 -195.08203125 628.23828125 C-206.04270608 642.25176149 -206.04270608 642.25176149 -215.08203125 645.23828125 C-217.65345701 645.42436513 -220.1142422 645.50980175 -222.68369579 645.49440765 C-223.44482041 645.49780452 -224.20594503 645.50120139 -224.99013403 645.5047012 C-227.54950053 645.51368975 -230.10864022 645.50843165 -232.66801453 645.5032959 C-234.51821141 645.50686572 -236.36840676 645.51131593 -238.21859962 645.51657248 C-243.31063609 645.52851728 -248.40260835 645.52805153 -253.49465549 645.52563739 C-258.9845613 645.52521857 -264.47444481 645.53631046 -269.96434021 645.5460968 C-279.48440855 645.56156966 -289.00446204 645.56996559 -298.52454185 645.57380676 C-312.31734972 645.57955559 -326.11011778 645.59814682 -339.90290806 645.6202473 C-362.31734545 645.65599563 -384.73178599 645.68431577 -407.14624023 645.70654297 C-408.15252233 645.7075443 -408.15252233 645.7075443 -409.17913336 645.70856585 C-419.37593243 645.71870467 -429.57273181 645.72851961 -439.76953125 645.73828125 C-450.60636413 645.74866192 -461.44319686 645.75918445 -472.2800293 645.77001953 C-473.28097329 645.77101685 -473.28097329 645.77101685 -474.30213837 645.77203431 C-497.28016549 645.79497972 -520.25817685 645.8256939 -543.23618633 645.86241198 C-556.97816421 645.88399732 -570.72011596 645.8986753 -584.46210984 645.90425074 C-593.90052178 645.9085227 -603.33890891 645.919825 -612.77730706 645.93647468 C-618.21031529 645.94580974 -623.64327722 645.95202046 -629.07629395 645.94941139 C-691.61031047 645.92545053 -747.41628143 653.03244893 -795.08203125 697.23828125 C-795.67902832 697.79 -796.27602539 698.34171875 -796.89111328 698.91015625 C-831.00407964 730.79735167 -852.76070528 776.72025164 -855.19695726 823.44231446 C-855.36669489 828.77924323 -855.34246011 834.11627167 -855.32254028 839.45521545 C-855.32341476 841.22705298 -855.32517018 842.99889024 -855.32771862 844.77072614 C-855.33214858 849.58942157 -855.3242491 854.40802652 -855.31416249 859.22671044 C-855.30546684 864.44186575 -855.30845245 869.6570166 -855.30996704 874.87217712 C-855.31101205 883.89118201 -855.30477577 892.91015779 -855.29349136 901.92915535 C-855.27718701 914.9688573 -855.27202332 928.00854529 -855.26951538 941.04825633 C-855.265146 962.20804148 -855.25185749 983.36781114 -855.23291016 1004.52758789 C-855.21453173 1025.07348556 -855.20040779 1045.61937898 -855.19189453 1066.1652832 C-855.19135854 1067.44618354 -855.19082254 1068.72708387 -855.1902703 1070.04679936 C-855.18611108 1080.0653627 -855.18219736 1090.08392613 -855.17836118 1100.10248959 C-855.15951859 1149.14776769 -855.11927611 1198.193007 -855.08203125 1247.23828125 C-757.07203125 1247.23828125 -659.06203125 1247.23828125 -558.08203125 1247.23828125 C-557.75203125 1219.84828125 -557.42203125 1192.45828125 -557.08203125 1164.23828125 C-553.59498288 1137.50424376 -553.59498288 1137.50424376 -551.26953125 1128.42578125 C-551.00873779 1127.38357422 -550.74794434 1126.34136719 -550.47924805 1125.26757812 C-542.04552744 1092.27378699 -527.35999411 1061.87445019 -506.08203125 1035.23828125 C-505.31375 1034.25859375 -504.54546875 1033.27890625 -503.75390625 1032.26953125 C-499.57635216 1027.04007505 -495.16508458 1022.04583609 -490.64453125 1017.11328125 C-490.12375 1016.54391846 -489.60296875 1015.97455566 -489.06640625 1015.38793945 C-485.32950184 1011.36201654 -485.32950184 1011.36201654 -483.08203125 1010.23828125 C-483.08203125 1009.57828125 -483.08203125 1008.91828125 -483.08203125 1008.23828125 C-482.42203125 1008.23828125 -481.76203125 1008.23828125 -481.08203125 1008.23828125 C-481.08203125 1007.57828125 -481.08203125 1006.91828125 -481.08203125 1006.23828125 C-480.49679687 1005.97660156 -479.9115625 1005.71492187 -479.30859375 1005.4453125 C-476.95280625 1004.1682277 -475.38641028 1002.77973189 -473.45703125 1000.92578125 C-461.89641682 990.46798859 -448.63105057 981.87793392 -435.08203125 974.23828125 C-434.49421875 973.89990234 -433.90640625 973.56152344 -433.30078125 973.21289062 C-422.6631923 967.11260661 -411.55864858 962.51886058 -400.08203125 958.23828125 C-399.35709473 957.96242188 -398.6321582 957.6865625 -397.88525391 957.40234375 C-388.16687748 953.74408698 -378.28222877 951.21579202 -368.14453125 948.98828125 C-367.03851562 948.74190918 -365.9325 948.49553711 -364.79296875 948.24169922 C-345.79387451 944.25045512 -326.85820936 943.91363284 -307.51171875 943.90234375 C-304.89242483 943.89590175 -302.2731316 943.8891724 -299.65383911 943.88217163 C-294.20280792 943.86949467 -288.7518252 943.86639609 -283.30078125 943.86767578 C-277.0230423 943.8688836 -270.7456435 943.84761815 -264.46799076 943.81618845 C-258.3805463 943.78681396 -252.29326491 943.779701 -246.20575333 943.78089523 C-243.63421347 943.77854235 -241.06267079 943.76973661 -238.49117661 943.7542305 C-234.90251992 943.73458741 -231.31474576 943.74039947 -227.72607422 943.75244141 C-226.67554367 943.74120239 -225.62501312 943.72996338 -224.54264832 943.71838379 C-217.82520734 943.77552489 -212.97911365 945.05317762 -207.08203125 948.23828125 C-206.35816664 948.57571161 -205.63430202 948.91314198 -204.88850212 949.2607975 C-202.51030918 950.54764081 -202.23599969 951.8044569 -201.08203125 954.23828125 C-199.38618885 956.36441202 -197.67270971 958.43392143 -195.89453125 960.48828125 C-195.40130371 961.06384766 -194.90807617 961.63941406 -194.39990234 962.23242188 C-192.96467112 963.90459059 -191.52385879 965.57180048 -190.08203125 967.23828125 C-189.38722656 968.0478125 -188.69242188 968.85734375 -187.9765625 969.69140625 C-185.52196576 972.53071903 -183.04989902 975.27041348 -180.39453125 977.92578125 C-178.08203125 980.23828125 -178.08203125 980.23828125 -175.89453125 983.05078125 C-175.29640625 983.77265625 -174.69828125 984.49453125 -174.08203125 985.23828125 C-173.42203125 985.23828125 -172.76203125 985.23828125 -172.08203125 985.23828125 C-172.08203125 985.89828125 -172.08203125 986.55828125 -172.08203125 987.23828125 C-170.73947725 988.67528347 -170.73947725 988.67528347 -168.89453125 990.17578125 C-168.14945313 990.80484375 -167.404375 991.43390625 -166.63671875 992.08203125 C-165.79367187 992.79359375 -164.950625 993.50515625 -164.08203125 994.23828125 C-163.21835937 995.01171875 -162.3546875 995.78515625 -161.46484375 996.58203125 C-139.12398446 1016.25620972 -112.97837918 1031.86446329 -85.08203125 1042.23828125 C-83.73818359 1042.73835693 -83.73818359 1042.73835693 -82.3671875 1043.24853516 C-20.31279632 1065.9230735 49.63296229 1065.49267985 110.91796875 1040.23828125 C111.61422363 1039.95259277 112.31047852 1039.6669043 113.02783203 1039.37255859 C131.50244898 1031.69657297 148.78916912 1022.07243009 164.91796875 1010.23828125 C165.5015918 1009.81160156 166.08521484 1009.38492188 166.68652344 1008.9453125 C173.52202692 1003.91066404 179.9758438 998.55469992 186.1875 992.7578125 C188.35395688 990.75872139 190.54993345 988.83003418 192.78515625 986.91015625 C196.83852289 983.37387596 200.56600733 979.61021964 204.23046875 975.67578125 C204.87129395 974.9897583 205.51211914 974.30373535 206.17236328 973.59692383 C210.39939369 969.01667581 214.43400054 964.32003493 218.29296875 959.42578125 C218.75098877 958.84562256 219.20900879 958.26546387 219.6809082 957.66772461 C221.58502713 955.19565234 222.92307457 953.22296379 223.91796875 950.23828125 C225.60546875 949.23828125 225.60546875 949.23828125 227.91796875 948.23828125 C229.40296875 947.46484375 229.40296875 947.46484375 230.91796875 946.67578125 C235.90385132 944.28671252 240.20654699 944.09201134 245.68785477 944.09961605 C246.47925228 944.09677383 247.2706498 944.09393161 248.08602905 944.09100327 C250.75407942 944.08264096 253.42208645 944.08138685 256.09014893 944.08006287 C258.01575917 944.07549856 259.94136842 944.07049874 261.8669765 944.0650993 C267.17107032 944.0514938 272.47515772 944.04409286 277.77926445 944.03767264 C283.49431997 944.02967929 289.20936207 944.01597785 294.92440796 944.00296021 C304.83033072 943.98118234 314.73625482 943.96304264 324.64218903 943.94735527 C338.96461005 943.92466858 353.28701623 943.89652409 367.60942468 943.86703599 C390.84507869 943.81934535 414.08073866 943.77607666 437.31640625 943.7355957 C459.89128086 943.69625547 482.46615003 943.65481852 505.04101562 943.6105957 C506.46029282 943.60781836 507.87957001 943.60504108 509.2988472 943.60226387 C520.28709241 943.58075157 531.27533735 943.55910567 542.26358223 943.53742754 C596.14836682 943.43115219 650.03316551 943.33546413 703.91796875 943.23828125 C703.91796875 845.22828125 703.91796875 747.21828125 703.91796875 646.23828125 C670.31082031 646.2125 636.70367188 646.18671875 602.078125 646.16015625 C580.83658304 646.13500146 559.59504914 646.10886745 538.35351562 646.078125 C527.90841936 646.06305653 517.46332289 646.048151 507.01822574 646.03370754 C505.60145936 646.03174795 504.18469299 646.0297825 502.76792663 646.02781112 C480.18337108 645.99643416 457.59882762 645.97794286 435.01425403 645.96618878 C411.14385652 645.95369522 387.27351858 645.92645396 363.40315527 645.88366818 C349.10329683 645.8585134 334.80352695 645.84516542 320.50364607 645.84685168 C310.7017851 645.8468814 300.90001443 645.83228094 291.09818865 645.80611697 C285.44044778 645.79144866 279.7828921 645.78328733 274.12513542 645.79247856 C268.94518816 645.8007513 263.76561338 645.79064937 258.58572143 645.76594463 C256.71209605 645.76025 254.83843549 645.76129343 252.96482063 645.7697688 C235.3493773 645.84262379 235.3493773 645.84262379 227.91796875 641.23828125 C227.2036656 640.90121588 226.48936244 640.5641505 225.75341374 640.21687102 C223.3459902 638.93332394 223.07286216 637.69296244 221.91796875 635.23828125 C220.30695346 633.19254754 218.6786267 631.2085912 216.98046875 629.23828125 C216.49175293 628.66722656 216.00303711 628.09617187 215.49951172 627.5078125 C196.33082607 605.2355083 175.73307574 586.23582611 150.94580078 570.33520508 C143.81744751 565.70651911 137.52590553 560.48143426 135.3184824 551.9106493 C134.86743251 548.90108566 134.77770037 546.02420008 134.75975037 542.98039246 C134.74997634 541.72242198 134.74020231 540.4644515 134.7301321 539.16836071 C134.72421845 537.77654747 134.71839323 536.38473386 134.71264648 534.99291992 C134.70292625 533.5004744 134.69278051 532.0080316 134.6822443 530.51559162 C134.65523322 526.52341461 134.63403637 522.53122665 134.61405182 518.53900909 C134.59440733 514.79116005 134.56950869 511.04335304 134.54504395 507.29553223 C134.47657878 496.33898025 134.41653721 485.38237695 134.35546875 474.42578125 C134.21109375 449.94390625 134.06671875 425.46203125 133.91796875 400.23828125 C52.40796875 400.23828125 -29.10203125 400.23828125 -113.08203125 400.23828125 Z M777.91796875 552.23828125 C776.90089844 552.99044922 776.90089844 552.99044922 775.86328125 553.7578125 C765.50939138 562.03689565 759.08460633 574.25752288 756.91796875 587.23828125 C756.82608996 589.58599616 756.78888536 591.93608117 756.78654099 594.28559208 C756.78448835 594.98675285 756.78243572 595.68791362 756.78032088 596.41032168 C756.77465555 598.76551388 756.77610756 601.12064752 756.77752686 603.47584534 C756.77494294 605.17927634 756.77192971 606.88270673 756.76852345 608.58613628 C756.7604531 613.27192676 756.75866386 617.95770193 756.75792599 622.64349854 C756.75607547 627.69549796 756.74852809 632.74748943 756.74179077 637.79948425 C756.72820618 648.84922719 756.72218239 659.8989665 756.71778011 670.9487164 C756.71501763 677.84873039 756.71078024 684.74874298 756.70627594 691.64875603 C756.69408259 710.75379759 756.68378374 729.85883803 756.68040085 748.9638834 C756.68018128 750.18678011 756.67996172 751.40967682 756.6797355 752.669631 C756.67951722 753.89545346 756.67929894 755.12127591 756.67907405 756.3842445 C756.67863058 758.86822355 756.67818402 761.35220259 756.67773438 763.83618164 C756.67751295 765.06832092 756.67729152 766.30046021 756.67706338 767.56993704 C756.67311629 787.53016296 756.65566527 807.49035235 756.63237485 827.45056415 C756.60865457 847.94468674 756.59619867 868.43879101 756.59503293 888.93292755 C756.5941165 900.4390502 756.5883722 911.94512528 756.57021332 923.45123482 C756.55480314 933.25021546 756.54969727 943.04913382 756.55795142 952.84812427 C756.56185479 957.84602522 756.56094357 962.84380078 756.54689407 967.84168625 C756.53413645 972.42198459 756.53536904 977.00206357 756.54748479 981.58236169 C756.54943857 983.23450305 756.54637816 984.88666004 756.53764042 986.53877944 C756.44902782 1004.43448769 759.97579587 1019.74078271 772.53930664 1033.07226562 C783.02018978 1043.62516422 796.61873105 1049.24024112 811.48046875 1049.48828125 C827.08358014 1049.27638714 840.4480533 1043.39737235 851.69921875 1032.62109375 C864.81082463 1018.53996771 867.22553296 1003.1811436 867.17866516 984.59562683 C867.18168813 982.89699219 867.18557835 981.19835891 867.19025773 979.49972802 C867.20052773 974.84575756 867.19835844 970.19186422 867.19407713 965.53788745 C867.19160809 960.51322087 867.20062631 955.48857276 867.20811462 950.46391296 C867.22085886 940.6251704 867.22265564 930.78645513 867.22031436 920.94770571 C867.21853067 912.94935455 867.22028194 904.95101168 867.2245388 896.95266151 C867.22513399 895.81389677 867.22572918 894.67513202 867.22634241 893.50185925 C867.22755417 891.18837783 867.2287683 888.87489641 867.22998478 886.56141499 C867.24085934 864.86905155 867.23869827 843.17670365 867.23259994 821.48433933 C867.22743132 801.64722899 867.23868492 781.81016776 867.25769816 761.97306713 C867.27707864 741.596336 867.28533215 721.2196281 867.2815749 700.8428877 C867.27966312 689.40613362 867.28214819 677.96942134 867.29628944 666.53267479 C867.3082069 656.79600267 867.30960403 647.05939808 867.29749928 637.32272502 C867.29161308 632.35720357 867.29050404 627.39180562 867.30250168 622.42629242 C867.31336866 617.87575463 867.31024737 613.32544332 867.29623999 608.77491609 C867.29359531 607.13366359 867.29595237 605.4923933 867.30397586 603.85115828 C867.38083805 586.94792099 864.22720121 569.80452137 852.05078125 557.109375 C830.63954723 538.32552684 801.34772239 534.38498189 777.91796875 552.23828125 Z M-950.08984375 1321.58203125 C-959.25660542 1333.80438014 -961.94690784 1347.24708706 -961.08203125 1362.23828125 C-958.78557415 1377.9631739 -950.65493426 1390.64833672 -938.34765625 1400.40625 C-928.63984873 1406.98567446 -917.73326714 1410.35802551 -906.04754448 1410.36970901 C-905.34777249 1410.37176165 -904.6480005 1410.37381428 -903.92702329 1410.37592912 C-901.57656514 1410.38159432 -899.22616568 1410.38014246 -896.8757019 1410.37872314 C-895.17568301 1410.38130706 -893.47566473 1410.38432029 -891.77564728 1410.38772655 C-887.09932775 1410.39579678 -882.42302357 1410.39758613 -877.7466979 1410.39832401 C-872.70494265 1410.40017454 -867.66319536 1410.40772189 -862.6214447 1410.41445923 C-851.59449546 1410.42804346 -840.56754985 1410.43406747 -829.54059362 1410.43846989 C-822.65532828 1410.44123228 -815.77006435 1410.44546964 -808.88479996 1410.44997406 C-789.82179032 1410.46216707 -770.75878181 1410.47246618 -751.69576836 1410.47584915 C-750.4755877 1410.47606872 -749.25540704 1410.47628828 -747.99825121 1410.4765145 C-746.16359676 1410.47684192 -746.16359676 1410.47684192 -744.29187858 1410.47717595 C-741.81340082 1410.47761942 -739.33492307 1410.47806598 -736.85644531 1410.47851562 C-735.62703433 1410.47873705 -734.39762336 1410.47895848 -733.1309575 1410.47918662 C-713.21208841 1410.48313426 -693.29325591 1410.50058709 -673.37440096 1410.52387515 C-652.92435368 1410.54759126 -632.47432476 1410.56005113 -612.0242635 1410.56121707 C-600.54220597 1410.56213371 -589.0601961 1410.56788318 -577.5781517 1410.58603668 C-567.80036916 1410.60144118 -558.02264901 1410.60655606 -548.24485664 1410.59829858 C-543.25720584 1410.59439328 -538.26968069 1410.5953159 -533.28204536 1410.60935593 C-528.71228486 1410.62210185 -524.14274434 1410.6208912 -519.57298411 1410.60876521 C-517.92355232 1410.60680942 -516.27410491 1410.60988121 -514.62469505 1410.61860958 C-498.05435087 1410.7007151 -481.39198205 1407.27885245 -468.953125 1395.375 C-457.59456758 1382.40395426 -451.46857635 1368.1747181 -452.234375 1350.77734375 C-454.14491958 1335.74772638 -460.51269836 1322.89256272 -471.7890625 1312.8203125 C-485.86318571 1302.08854187 -499.51280452 1299.93492307 -516.74246216 1299.97085571 C-518.44308386 1299.96711604 -520.14370385 1299.96251325 -521.84432113 1299.95712507 C-526.50389758 1299.9449187 -531.16340211 1299.94515275 -535.82299089 1299.94751382 C-540.85385266 1299.94792259 -545.88469155 1299.93687705 -550.9155426 1299.92739868 C-560.76732051 1299.91080027 -570.61907448 1299.90528964 -580.4708652 1299.90417393 C-588.48158607 1299.90322283 -596.49229905 1299.89910944 -604.50301743 1299.89277267 C-627.22826238 1299.87516281 -649.95348845 1299.86593331 -672.67874028 1299.86743362 C-673.90333997 1299.86751353 -675.12793966 1299.86759345 -676.38964844 1299.86767578 C-678.22879803 1299.86779842 -678.22879803 1299.86779842 -680.10510217 1299.86792354 C-699.96929818 1299.86873619 -719.83341832 1299.84960314 -739.69759239 1299.82139905 C-760.10710912 1299.79264998 -780.51658887 1299.77885989 -800.92612636 1299.7805866 C-812.37920071 1299.78124984 -823.83219554 1299.77578656 -835.28525162 1299.7542305 C-845.03795408 1299.73599202 -854.79054098 1299.73169323 -864.54325314 1299.74524935 C-869.51525911 1299.75176572 -874.48704354 1299.75194438 -879.45902824 1299.73454285 C-884.01903124 1299.71874799 -888.57863821 1299.72174083 -893.13863192 1299.73911111 C-894.7799397 1299.74216696 -896.42127751 1299.73860256 -898.06254984 1299.72739096 C-919.05406467 1299.59360272 -936.00262225 1305.13780381 -950.08984375 1321.58203125 Z " fill="#000000" transform="translate(1047.08203125,7.76171875)"/>
<path d="M0 0 C12.49804496 7.44599508 20.9475891 22.14230656 29.34375 33.72216797 C30.83388754 35.77154639 32.33486875 37.81205971 33.84375 39.84765625 C46.62695101 57.10089911 58.67672173 74.75418077 70 93 C70.67466309 94.08345703 71.34932617 95.16691406 72.04443359 96.28320312 C82.34707016 112.85601184 91.99867336 129.67653774 101 147 C101.51369141 147.9782373 102.02738281 148.95647461 102.55664062 149.96435547 C119.60413266 182.53294344 134.36808919 217.70298918 141 254 C141.16081055 254.84804199 141.32162109 255.69608398 141.48730469 256.56982422 C145.67499725 279.40354171 146.11067008 304.28434212 141 327 C140.72591309 328.2382251 140.72591309 328.2382251 140.44628906 329.50146484 C135.78670019 349.65858617 127.11462814 368.9307119 114 385 C113.52949219 385.58571777 113.05898438 386.17143555 112.57421875 386.77490234 C87.92595662 417.25192566 54.99936471 433.65360794 17 441 C15.75347656 441.2475 14.50695312 441.495 13.22265625 441.75 C-4.62591779 444.69409469 -24.20156424 444.24440285 -42 441 C-42.82741699 440.84934082 -43.65483398 440.69868164 -44.50732422 440.54345703 C-81.70685798 433.47819255 -115.8874372 415.57217301 -139 385 C-139.40460449 384.47567383 -139.80920898 383.95134766 -140.22607422 383.41113281 C-160.65612105 356.8151549 -169.4695672 324.52988916 -169.375 291.25 C-169.37412384 290.48954376 -169.37324768 289.72908752 -169.37234497 288.94558716 C-169.21629915 247.54593004 -155.58039414 208.16470953 -138.35888672 170.93945312 C-137.18409712 168.39822662 -136.02720195 165.85013768 -134.87890625 163.296875 C-129.53777237 151.53599074 -123.30340778 140.26704631 -117 129 C-116.49919922 128.10168457 -115.99839844 127.20336914 -115.48242188 126.27783203 C-96.07572371 91.55704773 -73.78012966 57.93465757 -49.2578125 26.609375 C-47.90573407 24.87938645 -46.56213219 23.14299824 -45.21875 21.40625 C-42.50932188 17.91306456 -39.76644677 14.44815919 -37 11 C-36.27683594 10.09507813 -35.55367187 9.19015625 -34.80859375 8.2578125 C-25.58322745 -2.75485568 -13.21360753 -6.18018642 0 0 Z M-13 67 C-26.91217324 83.41809265 -38.42967677 101.90678882 -50 120 C-50.55010742 120.8564209 -51.10021484 121.7128418 -51.66699219 122.59521484 C-86.57856679 177.14852944 -126.57346963 247.42696505 -114.8125 314.5625 C-110.5847738 333.72954716 -101.83086296 349.12809591 -88 363 C-87.37867188 363.64453125 -86.75734375 364.2890625 -86.1171875 364.953125 C-65.92300064 384.33229984 -36.35690275 390.6481477 -9.38183594 390.47705078 C1.07866696 390.22376637 10.91519312 388.728079 21 386 C22.08667969 385.72285156 23.17335938 385.44570312 24.29296875 385.16015625 C38.6862795 380.94511113 51.68506176 372.66912904 63 363 C64.11955078 362.05060547 64.11955078 362.05060547 65.26171875 361.08203125 C80.67483292 346.88016377 90.13702819 323.3901895 91.16113281 302.75292969 C91.45984843 279.7117863 91.45984843 279.7117863 88 257 C87.79020508 256.09636719 87.58041016 255.19273437 87.36425781 254.26171875 C80.51040656 225.69922568 68.16948491 199.1121794 55 173 C54.51144531 172.02708008 54.02289063 171.05416016 53.51953125 170.05175781 C36.79733494 136.92354117 16.26907183 105.82220707 -5.3125 75.6875 C-5.857854 74.92211914 -6.40320801 74.15673828 -6.96508789 73.36816406 C-7.7190686 72.32547363 -7.7190686 72.32547363 -8.48828125 71.26171875 C-8.92696533 70.65287842 -9.36564941 70.04403809 -9.81762695 69.41674805 C-10.96370806 67.85141622 -10.96370806 67.85141622 -13 67 Z " fill="#000000" transform="translate(353,1550)"/>
</svg>
